<svg width="193" height="320" viewBox="0 0 193 320" fill="none" xmlns="http://www.w3.org/2000/svg">
<path d="M42.0808 3.74527L16.0724 3.73591L10.6934 3.74527L10.6934 121.448L14.7743 128.216L14.7743 132.595L16.9636 140.956L28.4323 153.161L28.4357 156.005L16.9636 179.972L16.9636 187.775L10.1847 194.464L8.62033 200.037L3.92739 210.07L3.92739 213.414L14.878 218.988L10.7063 224.004L12.7921 228.463L10.2623 235.152L10.2623 316.071L189.338 316.071L189.338 204.319L182.714 197.066L177.33 193.151L170.592 202.341L151.484 202.341L147.833 205.873L137.217 205.873L134.108 210.197L128.671 203.405L128.541 196.499L124.729 191.399L119.421 191.513L115.597 185.838L116.551 180.06L107.269 166.441L106.013 156.105L100.63 152.19L89.1251 161.648L85.8648 157.688L85.8648 144.857L89.2134 138.041L87.8817 135.939L87.8817 116.431L89.703 107.517L84.9475 108.771L71.7165 98.0381L71.7166 94.6939L60.766 80.7595L56.0729 79.0874L51.3797 73.5137L51.3797 62.9236L42.0808 49.5467L42.0808 3.74527Z" fill="white" stroke="#031926" stroke-width="6" stroke-linejoin="round"/>
<path d="M42.2475 229.087L44.8805 237.523L53.2002 237.453L46.5078 242.736L49.1408 251.172L42.3716 246.002L35.6792 251.285L38.1881 242.806L31.4189 237.635L39.7387 237.566L42.2475 229.087Z" fill="#031926"/>
</svg>
